<mxfile host="drawio-plugin" modified="2021-03-19T02:25:48.909Z" agent="5.0 (X11; Linux x86_64) AppleWebKit/537.36 (KHTML, like Gecko) Chrome/84.0.4147.105 Safari/537.36" etag="3aqX3uhjn9EnrVeGZtK6" version="13.7.9" type="embed"><diagram id="L20Fy2joBcqm4VzIN3Vt" name="Page-1"><mxGraphModel dx="1041" dy="684" grid="1" gridSize="10" guides="1" tooltips="1" connect="1" arrows="1" fold="1" page="1" pageScale="1" pageWidth="827" pageHeight="1169" math="0" shadow="0"><root><mxCell id="0"/><mxCell id="1" parent="0"/><mxCell id="35" value="" style="fontSize=12;html=1;endArrow=ERoneToMany;exitX=0;exitY=0.5;exitDx=0;exitDy=0;entryX=1;entryY=0.5;entryDx=0;entryDy=0;fillColor=#60a917;strokeColor=#2D7600;" edge="1" parent="1" source="23" target="iHEfSxfmgkh_VR93vHRP-51"><mxGeometry width="100" height="100" relative="1" as="geometry"><mxPoint x="270" y="600" as="sourcePoint"/><mxPoint x="290" y="470" as="targetPoint"/></mxGeometry></mxCell><mxCell id="45" value="" style="edgeStyle=orthogonalEdgeStyle;fontSize=12;html=1;endArrow=ERoneToMany;exitX=1;exitY=0.5;exitDx=0;exitDy=0;entryX=0;entryY=0.5;entryDx=0;entryDy=0;fillColor=#a20025;strokeColor=#6F0000;" edge="1" parent="1" source="iHEfSxfmgkh_VR93vHRP-41" target="36"><mxGeometry width="100" height="100" relative="1" as="geometry"><mxPoint x="300" y="450" as="sourcePoint"/><mxPoint x="400" y="350" as="targetPoint"/></mxGeometry></mxCell><mxCell id="46" value="" style="edgeStyle=orthogonalEdgeStyle;fontSize=12;html=1;endArrow=ERoneToMany;exitX=1;exitY=0.5;exitDx=0;exitDy=0;entryX=1;entryY=0.5;entryDx=0;entryDy=0;fillColor=#0050ef;strokeColor=#001DBC;" edge="1" parent="1" source="iHEfSxfmgkh_VR93vHRP-18" target="39"><mxGeometry width="100" height="100" relative="1" as="geometry"><mxPoint x="300" y="450" as="sourcePoint"/><mxPoint x="400" y="350" as="targetPoint"/><Array as="points"><mxPoint x="530" y="345"/><mxPoint x="530" y="645"/></Array></mxGeometry></mxCell><mxCell id="47" value="" style="edgeStyle=orthogonalEdgeStyle;fontSize=12;html=1;endArrow=ERoneToMany;entryX=1;entryY=0.5;entryDx=0;entryDy=0;exitX=1;exitY=0.5;exitDx=0;exitDy=0;fillColor=#f0a30a;strokeColor=#BD7000;" edge="1" parent="1" source="iHEfSxfmgkh_VR93vHRP-31" target="42"><mxGeometry width="100" height="100" relative="1" as="geometry"><mxPoint x="590" y="650" as="sourcePoint"/><mxPoint x="400" y="350" as="targetPoint"/></mxGeometry></mxCell><mxCell id="iHEfSxfmgkh_VR93vHRP-50" value="PosibleAction" style="shape=table;startSize=30;container=1;collapsible=1;childLayout=tableLayout;fixedRows=1;rowLines=0;fontStyle=1;align=center;resizeLast=1;" parent="1" vertex="1"><mxGeometry x="50" y="510" width="180" height="90" as="geometry"/></mxCell><mxCell id="iHEfSxfmgkh_VR93vHRP-51" value="" style="shape=partialRectangle;collapsible=0;dropTarget=0;pointerEvents=0;fillColor=none;top=0;left=0;bottom=1;right=0;points=[[0,0.5],[1,0.5]];portConstraint=eastwest;" parent="iHEfSxfmgkh_VR93vHRP-50" vertex="1"><mxGeometry y="30" width="180" height="30" as="geometry"/></mxCell><mxCell id="iHEfSxfmgkh_VR93vHRP-52" value="PK" style="shape=partialRectangle;connectable=0;fillColor=none;top=0;left=0;bottom=0;right=0;fontStyle=1;overflow=hidden;" parent="iHEfSxfmgkh_VR93vHRP-51" vertex="1"><mxGeometry width="30" height="30" as="geometry"/></mxCell><mxCell id="iHEfSxfmgkh_VR93vHRP-53" value="id" style="shape=partialRectangle;connectable=0;fillColor=none;top=0;left=0;bottom=0;right=0;align=left;spacingLeft=6;fontStyle=5;overflow=hidden;" parent="iHEfSxfmgkh_VR93vHRP-51" vertex="1"><mxGeometry x="30" width="150" height="30" as="geometry"/></mxCell><mxCell id="iHEfSxfmgkh_VR93vHRP-54" value="" style="shape=partialRectangle;collapsible=0;dropTarget=0;pointerEvents=0;fillColor=none;top=0;left=0;bottom=0;right=0;points=[[0,0.5],[1,0.5]];portConstraint=eastwest;" parent="iHEfSxfmgkh_VR93vHRP-50" vertex="1"><mxGeometry y="60" width="180" height="30" as="geometry"/></mxCell><mxCell id="iHEfSxfmgkh_VR93vHRP-55" value="" style="shape=partialRectangle;connectable=0;fillColor=none;top=0;left=0;bottom=0;right=0;editable=1;overflow=hidden;" parent="iHEfSxfmgkh_VR93vHRP-54" vertex="1"><mxGeometry width="30" height="30" as="geometry"/></mxCell><mxCell id="iHEfSxfmgkh_VR93vHRP-56" value="name" style="shape=partialRectangle;connectable=0;fillColor=none;top=0;left=0;bottom=0;right=0;align=left;spacingLeft=6;overflow=hidden;" parent="iHEfSxfmgkh_VR93vHRP-54" vertex="1"><mxGeometry x="30" width="150" height="30" as="geometry"/></mxCell><mxCell id="iHEfSxfmgkh_VR93vHRP-40" value="Material" style="shape=table;startSize=30;container=1;collapsible=1;childLayout=tableLayout;fixedRows=1;rowLines=0;fontStyle=1;align=center;resizeLast=1;" parent="1" vertex="1"><mxGeometry x="30" y="300" width="180" height="130" as="geometry"/></mxCell><mxCell id="iHEfSxfmgkh_VR93vHRP-41" value="" style="shape=partialRectangle;collapsible=0;dropTarget=0;pointerEvents=0;fillColor=none;top=0;left=0;bottom=1;right=0;points=[[0,0.5],[1,0.5]];portConstraint=eastwest;" parent="iHEfSxfmgkh_VR93vHRP-40" vertex="1"><mxGeometry y="30" width="180" height="30" as="geometry"/></mxCell><mxCell id="iHEfSxfmgkh_VR93vHRP-42" value="PK" style="shape=partialRectangle;connectable=0;fillColor=none;top=0;left=0;bottom=0;right=0;fontStyle=1;overflow=hidden;" parent="iHEfSxfmgkh_VR93vHRP-41" vertex="1"><mxGeometry width="30" height="30" as="geometry"/></mxCell><mxCell id="iHEfSxfmgkh_VR93vHRP-43" value="id" style="shape=partialRectangle;connectable=0;fillColor=none;top=0;left=0;bottom=0;right=0;align=left;spacingLeft=6;fontStyle=5;overflow=hidden;" parent="iHEfSxfmgkh_VR93vHRP-41" vertex="1"><mxGeometry x="30" width="150" height="30" as="geometry"/></mxCell><mxCell id="iHEfSxfmgkh_VR93vHRP-44" value="" style="shape=partialRectangle;collapsible=0;dropTarget=0;pointerEvents=0;fillColor=none;top=0;left=0;bottom=0;right=0;points=[[0,0.5],[1,0.5]];portConstraint=eastwest;" parent="iHEfSxfmgkh_VR93vHRP-40" vertex="1"><mxGeometry y="60" width="180" height="30" as="geometry"/></mxCell><mxCell id="iHEfSxfmgkh_VR93vHRP-45" value="" style="shape=partialRectangle;connectable=0;fillColor=none;top=0;left=0;bottom=0;right=0;editable=1;overflow=hidden;" parent="iHEfSxfmgkh_VR93vHRP-44" vertex="1"><mxGeometry width="30" height="30" as="geometry"/></mxCell><mxCell id="iHEfSxfmgkh_VR93vHRP-46" value="name" style="shape=partialRectangle;connectable=0;fillColor=none;top=0;left=0;bottom=0;right=0;align=left;spacingLeft=6;overflow=hidden;" parent="iHEfSxfmgkh_VR93vHRP-44" vertex="1"><mxGeometry x="30" width="150" height="30" as="geometry"/></mxCell><mxCell id="iHEfSxfmgkh_VR93vHRP-47" value="" style="shape=partialRectangle;collapsible=0;dropTarget=0;pointerEvents=0;fillColor=none;top=0;left=0;bottom=0;right=0;points=[[0,0.5],[1,0.5]];portConstraint=eastwest;" parent="iHEfSxfmgkh_VR93vHRP-40" vertex="1"><mxGeometry y="90" width="180" height="30" as="geometry"/></mxCell><mxCell id="iHEfSxfmgkh_VR93vHRP-48" value="" style="shape=partialRectangle;connectable=0;fillColor=none;top=0;left=0;bottom=0;right=0;editable=1;overflow=hidden;" parent="iHEfSxfmgkh_VR93vHRP-47" vertex="1"><mxGeometry width="30" height="30" as="geometry"/></mxCell><mxCell id="iHEfSxfmgkh_VR93vHRP-49" value="description" style="shape=partialRectangle;connectable=0;fillColor=none;top=0;left=0;bottom=0;right=0;align=left;spacingLeft=6;overflow=hidden;" parent="iHEfSxfmgkh_VR93vHRP-47" vertex="1"><mxGeometry x="30" width="150" height="30" as="geometry"/></mxCell><mxCell id="iHEfSxfmgkh_VR93vHRP-17" value="Instrument" style="shape=table;startSize=30;container=1;collapsible=1;childLayout=tableLayout;fixedRows=1;rowLines=0;fontStyle=1;align=center;resizeLast=1;" parent="1" vertex="1"><mxGeometry x="320" y="300" width="180" height="130" as="geometry"/></mxCell><mxCell id="iHEfSxfmgkh_VR93vHRP-18" value="" style="shape=partialRectangle;collapsible=0;dropTarget=0;pointerEvents=0;fillColor=none;top=0;left=0;bottom=1;right=0;points=[[0,0.5],[1,0.5]];portConstraint=eastwest;" parent="iHEfSxfmgkh_VR93vHRP-17" vertex="1"><mxGeometry y="30" width="180" height="30" as="geometry"/></mxCell><mxCell id="iHEfSxfmgkh_VR93vHRP-19" value="PK" style="shape=partialRectangle;connectable=0;fillColor=none;top=0;left=0;bottom=0;right=0;fontStyle=1;overflow=hidden;" parent="iHEfSxfmgkh_VR93vHRP-18" vertex="1"><mxGeometry width="30" height="30" as="geometry"/></mxCell><mxCell id="iHEfSxfmgkh_VR93vHRP-20" value="id" style="shape=partialRectangle;connectable=0;fillColor=none;top=0;left=0;bottom=0;right=0;align=left;spacingLeft=6;fontStyle=5;overflow=hidden;" parent="iHEfSxfmgkh_VR93vHRP-18" vertex="1"><mxGeometry x="30" width="150" height="30" as="geometry"/></mxCell><mxCell id="iHEfSxfmgkh_VR93vHRP-21" value="" style="shape=partialRectangle;collapsible=0;dropTarget=0;pointerEvents=0;fillColor=none;top=0;left=0;bottom=0;right=0;points=[[0,0.5],[1,0.5]];portConstraint=eastwest;" parent="iHEfSxfmgkh_VR93vHRP-17" vertex="1"><mxGeometry y="60" width="180" height="30" as="geometry"/></mxCell><mxCell id="iHEfSxfmgkh_VR93vHRP-22" value="" style="shape=partialRectangle;connectable=0;fillColor=none;top=0;left=0;bottom=0;right=0;editable=1;overflow=hidden;" parent="iHEfSxfmgkh_VR93vHRP-21" vertex="1"><mxGeometry width="30" height="30" as="geometry"/></mxCell><mxCell id="iHEfSxfmgkh_VR93vHRP-23" value="name" style="shape=partialRectangle;connectable=0;fillColor=none;top=0;left=0;bottom=0;right=0;align=left;spacingLeft=6;overflow=hidden;" parent="iHEfSxfmgkh_VR93vHRP-21" vertex="1"><mxGeometry x="30" width="150" height="30" as="geometry"/></mxCell><mxCell id="iHEfSxfmgkh_VR93vHRP-24" value="" style="shape=partialRectangle;collapsible=0;dropTarget=0;pointerEvents=0;fillColor=none;top=0;left=0;bottom=0;right=0;points=[[0,0.5],[1,0.5]];portConstraint=eastwest;" parent="iHEfSxfmgkh_VR93vHRP-17" vertex="1"><mxGeometry y="90" width="180" height="30" as="geometry"/></mxCell><mxCell id="iHEfSxfmgkh_VR93vHRP-25" value="" style="shape=partialRectangle;connectable=0;fillColor=none;top=0;left=0;bottom=0;right=0;editable=1;overflow=hidden;" parent="iHEfSxfmgkh_VR93vHRP-24" vertex="1"><mxGeometry width="30" height="30" as="geometry"/></mxCell><mxCell id="iHEfSxfmgkh_VR93vHRP-26" value="description" style="shape=partialRectangle;connectable=0;fillColor=none;top=0;left=0;bottom=0;right=0;align=left;spacingLeft=6;overflow=hidden;" parent="iHEfSxfmgkh_VR93vHRP-24" vertex="1"><mxGeometry x="30" width="150" height="30" as="geometry"/></mxCell><mxCell id="22" value="Precondtion" style="shape=table;startSize=30;container=1;collapsible=1;childLayout=tableLayout;fixedRows=1;rowLines=0;fontStyle=1;align=center;resizeLast=1;" vertex="1" parent="1"><mxGeometry x="310" y="510" width="180" height="190" as="geometry"/></mxCell><mxCell id="23" value="" style="shape=partialRectangle;collapsible=0;dropTarget=0;pointerEvents=0;fillColor=none;top=0;left=0;bottom=1;right=0;points=[[0,0.5],[1,0.5]];portConstraint=eastwest;" vertex="1" parent="22"><mxGeometry y="30" width="180" height="30" as="geometry"/></mxCell><mxCell id="24" value="FK" style="shape=partialRectangle;connectable=0;fillColor=none;top=0;left=0;bottom=0;right=0;fontStyle=1;overflow=hidden;" vertex="1" parent="23"><mxGeometry width="30" height="30" as="geometry"/></mxCell><mxCell id="25" value="action_id" style="shape=partialRectangle;connectable=0;fillColor=none;top=0;left=0;bottom=0;right=0;align=left;spacingLeft=6;fontStyle=5;overflow=hidden;" vertex="1" parent="23"><mxGeometry x="30" width="150" height="30" as="geometry"/></mxCell><mxCell id="36" value="" style="shape=partialRectangle;collapsible=0;dropTarget=0;pointerEvents=0;fillColor=none;top=0;left=0;bottom=0;right=0;points=[[0,0.5],[1,0.5]];portConstraint=eastwest;" vertex="1" parent="22"><mxGeometry y="60" width="180" height="30" as="geometry"/></mxCell><mxCell id="37" value="FK" style="shape=partialRectangle;connectable=0;fillColor=none;top=0;left=0;bottom=0;right=0;fontStyle=0;overflow=hidden;" vertex="1" parent="36"><mxGeometry width="30" height="30" as="geometry"/></mxCell><mxCell id="38" value="material_id" style="shape=partialRectangle;connectable=0;fillColor=none;top=0;left=0;bottom=0;right=0;align=left;spacingLeft=6;fontStyle=0;overflow=hidden;" vertex="1" parent="36"><mxGeometry x="30" width="150" height="30" as="geometry"/></mxCell><mxCell id="29" value="" style="shape=partialRectangle;collapsible=0;dropTarget=0;pointerEvents=0;fillColor=none;top=0;left=0;bottom=0;right=0;points=[[0,0.5],[1,0.5]];portConstraint=eastwest;" vertex="1" parent="22"><mxGeometry y="90" width="180" height="30" as="geometry"/></mxCell><mxCell id="30" value="" style="shape=partialRectangle;connectable=0;fillColor=none;top=0;left=0;bottom=0;right=0;editable=1;overflow=hidden;" vertex="1" parent="29"><mxGeometry width="30" height="30" as="geometry"/></mxCell><mxCell id="31" value="count_material" style="shape=partialRectangle;connectable=0;fillColor=none;top=0;left=0;bottom=0;right=0;align=left;spacingLeft=6;overflow=hidden;" vertex="1" parent="29"><mxGeometry x="30" width="150" height="30" as="geometry"/></mxCell><mxCell id="39" value="" style="shape=partialRectangle;collapsible=0;dropTarget=0;pointerEvents=0;fillColor=none;top=0;left=0;bottom=0;right=0;points=[[0,0.5],[1,0.5]];portConstraint=eastwest;" vertex="1" parent="22"><mxGeometry y="120" width="180" height="30" as="geometry"/></mxCell><mxCell id="40" value="FK" style="shape=partialRectangle;connectable=0;fillColor=none;top=0;left=0;bottom=0;right=0;fontStyle=0;overflow=hidden;" vertex="1" parent="39"><mxGeometry width="30" height="30" as="geometry"/></mxCell><mxCell id="41" value="instrument_id" style="shape=partialRectangle;connectable=0;fillColor=none;top=0;left=0;bottom=0;right=0;align=left;spacingLeft=6;fontStyle=0;overflow=hidden;" vertex="1" parent="39"><mxGeometry x="30" width="150" height="30" as="geometry"/></mxCell><mxCell id="42" value="" style="shape=partialRectangle;collapsible=0;dropTarget=0;pointerEvents=0;fillColor=none;top=0;left=0;bottom=0;right=0;points=[[0,0.5],[1,0.5]];portConstraint=eastwest;" vertex="1" parent="22"><mxGeometry y="150" width="180" height="30" as="geometry"/></mxCell><mxCell id="43" value="FK" style="shape=partialRectangle;connectable=0;fillColor=none;top=0;left=0;bottom=0;right=0;fontStyle=0;overflow=hidden;" vertex="1" parent="42"><mxGeometry width="30" height="30" as="geometry"/></mxCell><mxCell id="44" value="building_id" style="shape=partialRectangle;connectable=0;fillColor=none;top=0;left=0;bottom=0;right=0;align=left;spacingLeft=6;fontStyle=0;overflow=hidden;" vertex="1" parent="42"><mxGeometry x="30" width="150" height="30" as="geometry"/></mxCell><mxCell id="iHEfSxfmgkh_VR93vHRP-30" value="Building" style="shape=table;startSize=30;container=1;collapsible=1;childLayout=tableLayout;fixedRows=1;rowLines=0;fontStyle=1;align=center;resizeLast=1;" parent="1" vertex="1"><mxGeometry x="560" y="300" width="180" height="130" as="geometry"/></mxCell><mxCell id="iHEfSxfmgkh_VR93vHRP-31" value="" style="shape=partialRectangle;collapsible=0;dropTarget=0;pointerEvents=0;fillColor=none;top=0;left=0;bottom=1;right=0;points=[[0,0.5],[1,0.5]];portConstraint=eastwest;" parent="iHEfSxfmgkh_VR93vHRP-30" vertex="1"><mxGeometry y="30" width="180" height="30" as="geometry"/></mxCell><mxCell id="iHEfSxfmgkh_VR93vHRP-32" value="PK" style="shape=partialRectangle;connectable=0;fillColor=none;top=0;left=0;bottom=0;right=0;fontStyle=1;overflow=hidden;" parent="iHEfSxfmgkh_VR93vHRP-31" vertex="1"><mxGeometry width="30" height="30" as="geometry"/></mxCell><mxCell id="iHEfSxfmgkh_VR93vHRP-33" value="id" style="shape=partialRectangle;connectable=0;fillColor=none;top=0;left=0;bottom=0;right=0;align=left;spacingLeft=6;fontStyle=5;overflow=hidden;" parent="iHEfSxfmgkh_VR93vHRP-31" vertex="1"><mxGeometry x="30" width="150" height="30" as="geometry"/></mxCell><mxCell id="iHEfSxfmgkh_VR93vHRP-34" value="" style="shape=partialRectangle;collapsible=0;dropTarget=0;pointerEvents=0;fillColor=none;top=0;left=0;bottom=0;right=0;points=[[0,0.5],[1,0.5]];portConstraint=eastwest;" parent="iHEfSxfmgkh_VR93vHRP-30" vertex="1"><mxGeometry y="60" width="180" height="30" as="geometry"/></mxCell><mxCell id="iHEfSxfmgkh_VR93vHRP-35" value="" style="shape=partialRectangle;connectable=0;fillColor=none;top=0;left=0;bottom=0;right=0;editable=1;overflow=hidden;" parent="iHEfSxfmgkh_VR93vHRP-34" vertex="1"><mxGeometry width="30" height="30" as="geometry"/></mxCell><mxCell id="iHEfSxfmgkh_VR93vHRP-36" value="name" style="shape=partialRectangle;connectable=0;fillColor=none;top=0;left=0;bottom=0;right=0;align=left;spacingLeft=6;overflow=hidden;" parent="iHEfSxfmgkh_VR93vHRP-34" vertex="1"><mxGeometry x="30" width="150" height="30" as="geometry"/></mxCell><mxCell id="iHEfSxfmgkh_VR93vHRP-37" value="" style="shape=partialRectangle;collapsible=0;dropTarget=0;pointerEvents=0;fillColor=none;top=0;left=0;bottom=0;right=0;points=[[0,0.5],[1,0.5]];portConstraint=eastwest;" parent="iHEfSxfmgkh_VR93vHRP-30" vertex="1"><mxGeometry y="90" width="180" height="30" as="geometry"/></mxCell><mxCell id="iHEfSxfmgkh_VR93vHRP-38" value="" style="shape=partialRectangle;connectable=0;fillColor=none;top=0;left=0;bottom=0;right=0;editable=1;overflow=hidden;" parent="iHEfSxfmgkh_VR93vHRP-37" vertex="1"><mxGeometry width="30" height="30" as="geometry"/></mxCell><mxCell id="iHEfSxfmgkh_VR93vHRP-39" value="description" style="shape=partialRectangle;connectable=0;fillColor=none;top=0;left=0;bottom=0;right=0;align=left;spacingLeft=6;overflow=hidden;" parent="iHEfSxfmgkh_VR93vHRP-37" vertex="1"><mxGeometry x="30" width="150" height="30" as="geometry"/></mxCell><mxCell id="48" value="Result" style="shape=table;startSize=30;container=1;collapsible=1;childLayout=tableLayout;fixedRows=1;rowLines=0;fontStyle=1;align=center;resizeLast=1;" vertex="1" parent="1"><mxGeometry x="310" y="730" width="180" height="190" as="geometry"/></mxCell><mxCell id="49" value="" style="shape=partialRectangle;collapsible=0;dropTarget=0;pointerEvents=0;fillColor=none;top=0;left=0;bottom=1;right=0;points=[[0,0.5],[1,0.5]];portConstraint=eastwest;" vertex="1" parent="48"><mxGeometry y="30" width="180" height="30" as="geometry"/></mxCell><mxCell id="50" value="FK" style="shape=partialRectangle;connectable=0;fillColor=none;top=0;left=0;bottom=0;right=0;fontStyle=1;overflow=hidden;" vertex="1" parent="49"><mxGeometry width="30" height="30" as="geometry"/></mxCell><mxCell id="51" value="action_id" style="shape=partialRectangle;connectable=0;fillColor=none;top=0;left=0;bottom=0;right=0;align=left;spacingLeft=6;fontStyle=5;overflow=hidden;" vertex="1" parent="49"><mxGeometry x="30" width="150" height="30" as="geometry"/></mxCell><mxCell id="52" value="" style="shape=partialRectangle;collapsible=0;dropTarget=0;pointerEvents=0;fillColor=none;top=0;left=0;bottom=0;right=0;points=[[0,0.5],[1,0.5]];portConstraint=eastwest;" vertex="1" parent="48"><mxGeometry y="60" width="180" height="30" as="geometry"/></mxCell><mxCell id="53" value="FK" style="shape=partialRectangle;connectable=0;fillColor=none;top=0;left=0;bottom=0;right=0;fontStyle=0;overflow=hidden;" vertex="1" parent="52"><mxGeometry width="30" height="30" as="geometry"/></mxCell><mxCell id="54" value="material_id" style="shape=partialRectangle;connectable=0;fillColor=none;top=0;left=0;bottom=0;right=0;align=left;spacingLeft=6;fontStyle=0;overflow=hidden;" vertex="1" parent="52"><mxGeometry x="30" width="150" height="30" as="geometry"/></mxCell><mxCell id="55" value="" style="shape=partialRectangle;collapsible=0;dropTarget=0;pointerEvents=0;fillColor=none;top=0;left=0;bottom=0;right=0;points=[[0,0.5],[1,0.5]];portConstraint=eastwest;" vertex="1" parent="48"><mxGeometry y="90" width="180" height="30" as="geometry"/></mxCell><mxCell id="56" value="" style="shape=partialRectangle;connectable=0;fillColor=none;top=0;left=0;bottom=0;right=0;editable=1;overflow=hidden;" vertex="1" parent="55"><mxGeometry width="30" height="30" as="geometry"/></mxCell><mxCell id="57" value="count_material" style="shape=partialRectangle;connectable=0;fillColor=none;top=0;left=0;bottom=0;right=0;align=left;spacingLeft=6;overflow=hidden;" vertex="1" parent="55"><mxGeometry x="30" width="150" height="30" as="geometry"/></mxCell><mxCell id="58" value="" style="shape=partialRectangle;collapsible=0;dropTarget=0;pointerEvents=0;fillColor=none;top=0;left=0;bottom=0;right=0;points=[[0,0.5],[1,0.5]];portConstraint=eastwest;" vertex="1" parent="48"><mxGeometry y="120" width="180" height="30" as="geometry"/></mxCell><mxCell id="59" value="FK" style="shape=partialRectangle;connectable=0;fillColor=none;top=0;left=0;bottom=0;right=0;fontStyle=0;overflow=hidden;" vertex="1" parent="58"><mxGeometry width="30" height="30" as="geometry"/></mxCell><mxCell id="60" value="instrument_id" style="shape=partialRectangle;connectable=0;fillColor=none;top=0;left=0;bottom=0;right=0;align=left;spacingLeft=6;fontStyle=0;overflow=hidden;" vertex="1" parent="58"><mxGeometry x="30" width="150" height="30" as="geometry"/></mxCell><mxCell id="61" value="" style="shape=partialRectangle;collapsible=0;dropTarget=0;pointerEvents=0;fillColor=none;top=0;left=0;bottom=0;right=0;points=[[0,0.5],[1,0.5]];portConstraint=eastwest;" vertex="1" parent="48"><mxGeometry y="150" width="180" height="30" as="geometry"/></mxCell><mxCell id="62" value="FK" style="shape=partialRectangle;connectable=0;fillColor=none;top=0;left=0;bottom=0;right=0;fontStyle=0;overflow=hidden;" vertex="1" parent="61"><mxGeometry width="30" height="30" as="geometry"/></mxCell><mxCell id="63" value="building_id" style="shape=partialRectangle;connectable=0;fillColor=none;top=0;left=0;bottom=0;right=0;align=left;spacingLeft=6;fontStyle=0;overflow=hidden;" vertex="1" parent="61"><mxGeometry x="30" width="150" height="30" as="geometry"/></mxCell><mxCell id="64" value="" style="edgeStyle=orthogonalEdgeStyle;fontSize=12;html=1;endArrow=ERoneToMany;exitX=1;exitY=0.5;exitDx=0;exitDy=0;entryX=0;entryY=0.5;entryDx=0;entryDy=0;fillColor=#a20025;strokeColor=#6F0000;" edge="1" parent="1" source="iHEfSxfmgkh_VR93vHRP-41" target="52"><mxGeometry width="100" height="100" relative="1" as="geometry"><mxPoint x="220" y="355" as="sourcePoint"/><mxPoint x="320" y="595" as="targetPoint"/></mxGeometry></mxCell><mxCell id="65" value="" style="edgeStyle=orthogonalEdgeStyle;fontSize=12;html=1;endArrow=ERoneToMany;exitX=1;exitY=0.5;exitDx=0;exitDy=0;entryX=1;entryY=0.5;entryDx=0;entryDy=0;fillColor=#0050ef;strokeColor=#001DBC;" edge="1" parent="1" source="iHEfSxfmgkh_VR93vHRP-18" target="58"><mxGeometry width="100" height="100" relative="1" as="geometry"><mxPoint x="510" y="340" as="sourcePoint"/><mxPoint x="500" y="640" as="targetPoint"/><Array as="points"><mxPoint x="500" y="340"/><mxPoint x="540" y="340"/><mxPoint x="540" y="865"/></Array></mxGeometry></mxCell><mxCell id="66" value="" style="edgeStyle=orthogonalEdgeStyle;fontSize=12;html=1;endArrow=ERoneToMany;entryX=1;entryY=0.5;entryDx=0;entryDy=0;exitX=1;exitY=0.5;exitDx=0;exitDy=0;fillColor=#f0a30a;strokeColor=#BD7000;" edge="1" parent="1" target="61"><mxGeometry width="100" height="100" relative="1" as="geometry"><mxPoint x="750" y="355" as="sourcePoint"/><mxPoint x="500" y="685" as="targetPoint"/></mxGeometry></mxCell></root></mxGraphModel></diagram></mxfile>